<svg width="640" height="420" viewBox="0 0 640 420" fill="none" xmlns="http://www.w3.org/2000/svg">
  <rect width="640" height="420" fill="#EDF3FF"/>
  <rect x="54" y="54" width="532" height="312" rx="18" fill="white" stroke="#C4D2F2"/>
  <rect x="86" y="94" width="212" height="18" rx="5" fill="#111111"/>
  <rect x="86" y="132" width="468" height="14" rx="5" fill="#D7E1F4"/>
  <rect x="86" y="159" width="402" height="14" rx="5" fill="#D7E1F4"/>
  <rect x="86" y="186" width="438" height="14" rx="5" fill="#D7E1F4"/>
  <rect x="86" y="232" width="154" height="88" rx="10" fill="#111111"/>
  <path d="M166.5 298C166.5 298 151.4 301.6 141.3 290.6C137.5 286.6 134.1 281.8 128.3 280.5C123.8 279.5 119.1 280.7 115.1 278.2C113 276.9 111.3 274.9 110 272.8C111.5 272.4 113.1 272.3 114.8 272.8C123.1 275 127.4 281.5 129.8 283.7C135.3 288.8 141.2 289.5 144.5 289C146.4 288.7 148.8 288.5 151.1 288.4C149.4 285.7 148.2 282.4 147.6 278.6C130.8 276.6 118.2 269.4 118.2 246.8C118.2 237.8 121.4 230.5 126.7 224.8C125.8 222.8 123.1 214.6 127.5 203.5C127.5 203.5 134.6 201.2 150.8 212.3C157.5 210.4 164.6 209.5 171.7 209.5C178.8 209.5 185.9 210.4 192.6 212.3C208.8 201.2 215.9 203.5 215.9 203.5C220.3 214.6 217.6 222.8 216.7 224.8C222 230.5 225.2 237.8 225.2 246.8C225.2 269.5 212.5 276.5 195.6 278.4C198.4 280.9 200.9 285.8 200.9 293.3C200.9 304 200.8 312.6 200.8 315.2C200.8 317.2 202.2 319.5 205.6 318.9C241.7 307.1 268 273 268 232.8C268 184.2 228.6 144.8 180 144.8C131.4 144.8 92 184.2 92 232.8C92 272.7 117.9 306.5 153.6 318.5C156.1 319.4 157.8 317.7 157.8 315.8C157.8 313.8 157.7 307.1 157.7 299.5C160.8 300.6 166.5 298 166.5 298Z" fill="white"/>
  <rect x="280" y="232" width="274" height="24" rx="6" fill="#D7E1F4"/>
  <rect x="280" y="272" width="201" height="24" rx="6" fill="#D7E1F4"/>
</svg>
