<svg width="1200" height="700" viewBox="0 0 1200 700" fill="none" xmlns="http://www.w3.org/2000/svg">
  <rect width="1200" height="700" fill="#D8D8D8"/>
  <rect y="470" width="1200" height="230" fill="#BFBFBF"/>
  <circle cx="912" cy="155" r="42" fill="white" fill-opacity="0.78"/>
  <rect x="178" y="188" width="336" height="208" rx="10" fill="#F4F4F4" fill-opacity="0.72" stroke="#8F8F8F"/>
  <rect x="206" y="218" width="280" height="34" rx="4" fill="#D9D9D9"/>
  <rect x="206" y="270" width="280" height="34" rx="4" fill="#D9D9D9"/>
  <rect x="206" y="322" width="280" height="34" rx="4" fill="#D9D9D9"/>
  <path d="M484 288H764L860 204H1014V438H764L668 522H484V288Z" fill="#E9E9E9" stroke="#8D8D8D"/>
  <rect x="556" y="330" width="148" height="28" rx="4" fill="#CF0000"/>
  <rect x="556" y="374" width="224" height="20" rx="4" fill="#CFCFCF"/>
  <rect x="556" y="405" width="193" height="20" rx="4" fill="#CFCFCF"/>
  <path d="M843 233H942" stroke="#CF0000" stroke-width="8"/>
  <path d="M843 262H973" stroke="#CF0000" stroke-width="8"/>
  <path d="M843 291H916" stroke="#CF0000" stroke-width="8"/>
  <rect x="0" y="626" width="1200" height="74" fill="#151515"/>
  <rect x="42" y="640" width="112" height="40" rx="4" fill="#CF0000"/>
  <rect x="172" y="647" width="164" height="24" rx="4" fill="#3A3A3A"/>
  <rect x="352" y="647" width="164" height="24" rx="4" fill="#3A3A3A"/>
  <rect x="532" y="647" width="164" height="24" rx="4" fill="#3A3A3A"/>
</svg>
